<?xml version="1.0" encoding="iso-8859-1"?>
<!-- Generator: Adobe Illustrator 15.1.0, SVG Export Plug-In . SVG Version: 6.00 Build 0)  -->
<!DOCTYPE svg PUBLIC "-//W3C//DTD SVG 1.1//EN" "http://www.w3.org/Graphics/SVG/1.1/DTD/svg11.dtd">
<svg version="1.1" xmlns="http://www.w3.org/2000/svg" xmlns:xlink="http://www.w3.org/1999/xlink" x="0px" y="0px" width="100%"
	 height="100%" viewBox="0 0 80 80" style="enable-background:new 0 0 80 80;" xml:space="preserve">
<g id="DO_NOT_EDIT_-_BOUNDING_BOX">
	<rect id="BOUNDING_BOX" style="fill:none;" width="80" height="80"/>
</g>
<g id="ORANGE_x2F_YELLOW_BACKGROUNDS">
	<path id="ORANGE3_1_" style="fill:#E8631F;" d="M79,40c0,28.893-10.105,39-39,39S1,68.893,1,40C1,11.106,11.105,1,40,1
		S79,11.106,79,40z"/>
</g>
<g id="DO_NOT_EDIT_-_HIGHLIGHT" style="display:none;">
	<defs>
		<filter id="Adobe_OpacityMaskFilter" filterUnits="userSpaceOnUse" x="1.023" y="1" width="77.953" height="78">
			<feFlood  style="flood-color:white;flood-opacity:1" result="back"/>
			<feBlend  in="SourceGraphic" in2="back" mode="normal"/>
		</filter>
	</defs>
	<mask maskUnits="userSpaceOnUse" x="1.023" y="1" width="77.953" height="78" id="OVERLAY_2_" style="display:inline;">
		<g style="filter:url(#Adobe_OpacityMaskFilter);">
			<defs>
				<filter id="Adobe_OpacityMaskFilter_1_" filterUnits="userSpaceOnUse" x="1.023" y="1" width="77.953" height="78">
					<feFlood  style="flood-color:white;flood-opacity:1" result="back"/>
					<feBlend  in="SourceGraphic" in2="back" mode="normal"/>
				</filter>
			</defs>
			<mask maskUnits="userSpaceOnUse" x="1.023" y="1" width="77.953" height="78" id="OVERLAY_2_">
				<g style="filter:url(#Adobe_OpacityMaskFilter_1_);">
				</g>
			</mask>
			<linearGradient id="OVERLAY_3_" gradientUnits="userSpaceOnUse" x1="39.9995" y1="5.1816" x2="39.9995" y2="58.8019">
				<stop  offset="0" style="stop-color:#FFFFFF"/>
				<stop  offset="1" style="stop-color:#D6D6D6"/>
			</linearGradient>
			<path id="OVERLAY_1_" style="mask:url(#OVERLAY_2_);fill:url(#OVERLAY_3_);" d="M78.977,40c0,28.893-10.1,39-38.977,39
				S1.023,68.893,1.023,40c0-28.894,10.1-39,38.977-39S78.977,11.106,78.977,40z"/>
		</g>
	</mask>
	<linearGradient id="OVERLAY_4_" gradientUnits="userSpaceOnUse" x1="39.9995" y1="5.1816" x2="39.9995" y2="58.8019">
		<stop  offset="0" style="stop-color:#FFFFFF"/>
		<stop  offset="1" style="stop-color:#000000"/>
	</linearGradient>
	<path id="OVERLAY" style="display:inline;opacity:0.5;fill:url(#OVERLAY_4_);" d="M78.977,40c0,28.893-10.1,39-38.977,39
		S1.023,68.893,1.023,40c0-28.894,10.1-39,38.977-39S78.977,11.106,78.977,40z"/>
	<defs>
		<filter id="Adobe_OpacityMaskFilter_2_" filterUnits="userSpaceOnUse" x="1" y="1" width="78" height="78">
			<feFlood  style="flood-color:white;flood-opacity:1" result="back"/>
			<feBlend  in="SourceGraphic" in2="back" mode="normal"/>
		</filter>
	</defs>
	<mask maskUnits="userSpaceOnUse" x="1" y="1" width="78" height="78" id="HIGHLIGHT_2_" style="display:inline;">
		<g style="filter:url(#Adobe_OpacityMaskFilter_2_);">
			<defs>
				<filter id="Adobe_OpacityMaskFilter_3_" filterUnits="userSpaceOnUse" x="1" y="1" width="78" height="78">
					<feFlood  style="flood-color:white;flood-opacity:1" result="back"/>
					<feBlend  in="SourceGraphic" in2="back" mode="normal"/>
				</filter>
			</defs>
			<mask maskUnits="userSpaceOnUse" x="1" y="1" width="78" height="78" id="HIGHLIGHT_2_">
				<g style="filter:url(#Adobe_OpacityMaskFilter_3_);">
				</g>
			</mask>
			<linearGradient id="HIGHLIGHT_3_" gradientUnits="userSpaceOnUse" x1="39.9995" y1="1.2471" x2="39.9995" y2="78.5111">
				<stop  offset="0" style="stop-color:#FFFFFF"/>
				<stop  offset="1" style="stop-color:#000000"/>
			</linearGradient>
			<path id="HIGHLIGHT_1_" style="mask:url(#HIGHLIGHT_2_);fill:url(#HIGHLIGHT_3_);" d="M39.999,1C11.105,1,1,11.106,1,40
				c0,28.893,10.105,39,38.999,39C68.896,79,79,68.893,79,40C79,11.106,68.896,1,39.999,1z M39.999,78.025
				C11.57,78.025,1.976,68.43,1.976,40c0-28.429,9.595-38.024,38.023-38.024c28.43,0,38.024,9.596,38.024,38.024
				C78.023,68.43,68.429,78.025,39.999,78.025z"/>
		</g>
	</mask>
	<linearGradient id="HIGHLIGHT_4_" gradientUnits="userSpaceOnUse" x1="39.9995" y1="1.2471" x2="39.9995" y2="78.5111">
		<stop  offset="0" style="stop-color:#FFFFFF"/>
		<stop  offset="1" style="stop-color:#FFFFFF"/>
	</linearGradient>
	<path id="HIGHLIGHT" style="display:inline;opacity:0.25;fill:url(#HIGHLIGHT_4_);" d="M39.999,1C11.105,1,1,11.106,1,40
		c0,28.893,10.105,39,38.999,39C68.896,79,79,68.893,79,40C79,11.106,68.896,1,39.999,1z M39.999,78.025
		C11.57,78.025,1.976,68.43,1.976,40c0-28.429,9.595-38.024,38.023-38.024c28.43,0,38.024,9.596,38.024,38.024
		C78.023,68.43,68.429,78.025,39.999,78.025z"/>
</g>
<g id="PLACE_YOUR_GLYPH_HERE">
	<g id="&#x30EC;&#x30A4;&#x30E4;&#x30FC;_10">
		<g id="&#x30EC;&#x30A4;&#x30E4;&#x30FC;_11">
		</g>
		<path style="fill:#6A6969;" d="M11.887,51.989c0,0-8.696-3.904-7.655-12c1.315-10.229,11.133-8.916,11.133-8.916
			s-1.947-4.364,3.404-8.425c5.371-4.076,10.105,0.775,10.105,0.775s1.139-5.434,7.937-6.434c5.3-0.78,9.315,3.5,9.315,3.5
			s6.46-8.881,17.287-5.917c8.354,2.287,6.881,13.142,6.881,13.142s6.052-0.089,7.427,7.024c2.078,10.749-7.427,12.91-7.427,12.91
			s4.196,13.09-5.705,19.09c-6.199,3.756-14.422-2.5-14.422-2.5s-3.194,3.607-7.901,3.333c-5.707-0.333-7.552-4-7.552-4
			s-7.853,5.997-15.609,1.834C10.796,60.947,11.887,51.989,11.887,51.989z"/>
		<path style="fill:#FFFFFF;" d="M11,49.75c0,0-8.635-3.904-7.602-12c1.306-10.229,11.055-8.916,11.055-8.916
			s-1.934-4.364,3.38-8.425c5.333-4.076,10.035,0.775,10.035,0.775S29,15.75,35.75,14.75c5.264-0.78,9.25,3.5,9.25,3.5
			s6.415-8.881,17.167-5.917C70.462,14.621,69,25.476,69,25.476s6.009-0.089,7.375,7.024C78.438,43.249,69,45.41,69,45.41
			s4.167,13.09-5.666,19.09C57.179,68.256,49.013,62,49.013,62s-3.172,3.607-7.846,3.333c-5.667-0.333-7.5-4-7.5-4
			s-7.798,5.997-15.5,1.834C9.917,58.708,11,49.75,11,49.75z"/>
		<g>
			<path style="fill:#939292;" d="M54.618,39.124c3.412,0.012,6.16,5.307,6.138,11.829c-0.022,6.52-2.807,11.799-6.219,11.787
				C51.123,62.728,51.204,39.113,54.618,39.124z"/>
			<path style="fill:#939292;" d="M26.164,62.601c-3.884,0-7.034-5.181-7.034-11.573c0-6.391,3.149-11.571,7.034-11.571
				C30.05,39.456,30.05,62.601,26.164,62.601z"/>
			<path style="fill:#939292;" d="M58.751,46.029c0,9.458,0-16.375-19.311-15.994c-19.364,0.381-19.31,25.452-19.31,15.994
				S24.5,25.904,39.44,25.904C54.382,25.904,58.751,36.571,58.751,46.029z"/>
		</g>
		
			<ellipse transform="matrix(0.9198 0.3925 -0.3925 0.9198 13.1479 -20.9475)" style="fill:#939292;" cx="57.808" cy="21.684" rx="2.665" ry="2.195"/>
		<path style="fill:none;stroke:#939292;stroke-width:2;stroke-miterlimit:10;" d="M57.208,21.684c0,0,5.085-0.667,6.375-0.725
			C66.333,20.833,66.625,22.292,67,27c0.543,6.823,0.74,18.925,0.47,24c-1.136,21.334-9.775,15.561-10.719,13.652
			c-1.33-2.69-1.369-8.235-1.369-8.235"/>
		<path style="fill:#939292;" d="M56.989,20.289c0,0-2.57,0.33-1.52,2.085c0.947,1.583,2.032,1.34,2.032,1.34l3.627-0.542
			c0,0,0.566-0.089,0.678-1.523c-0.146-2.126-1.19-1.902-1.19-1.902L56.989,20.289z"/>
		<linearGradient id="SVGID_1_" gradientUnits="userSpaceOnUse" x1="56.3018" y1="18.5879" x2="60.2614" y2="22.5475">
			<stop  offset="0.1904" style="stop-color:#FFC47F"/>
			<stop  offset="0.2926" style="stop-color:#FFA258"/>
			<stop  offset="0.4328" style="stop-color:#FF7929"/>
			<stop  offset="0.5402" style="stop-color:#FF600B"/>
			<stop  offset="0.6012" style="stop-color:#FF5600"/>
		</linearGradient>
		<path style="fill:url(#SVGID_1_);" d="M55.652,20.88c0,0-0.796,0.987,0.931,2.274c1.595,1.189,2.302-0.588,2.302-0.588
			l1.751-3.354c0,0,0.271-0.527-0.885-1.504c-1.9-1.19-2.348-0.182-2.348-0.182L55.652,20.88z"/>
		<path style="fill:none;stroke:#FF6600;stroke-width:2;stroke-linecap:round;stroke-miterlimit:10;" d="M59.375,17.74
			c0,0,1.017-3,2.959-2.2c1.729,0.712,1.813,6.171,2.333,11.293c0.674,6.648,0.972,13.853,1,19C65.83,75.5,54.751,67.939,54,61.5
			c-0.404-3.463-0.618-7.083-0.618-7.083"/>
		<path style="fill:none;stroke:#FF9200;stroke-linecap:round;stroke-miterlimit:10;" d="M59.375,17.74c0,0,1.017-3,2.959-2.2
			c1.729,0.712,1.813,6.171,2.333,11.293c0.674,6.648,0.972,13.852,1,19C65.83,75.5,54.751,67.939,54,61.5
			c-0.404-3.463-0.618-7.083-0.618-7.083"/>
		<g>
			<linearGradient id="SVGID_2_" gradientUnits="userSpaceOnUse" x1="8.8691" y1="40.1123" x2="28.1072" y2="51.6717">
				<stop  offset="0.1904" style="stop-color:#FFC47F"/>
				<stop  offset="0.296" style="stop-color:#FFB66F"/>
				<stop  offset="0.5017" style="stop-color:#FF9346"/>
				<stop  offset="0.7851" style="stop-color:#FF5904"/>
				<stop  offset="0.8001" style="stop-color:#FF5600"/>
			</linearGradient>
			<path style="fill:url(#SVGID_2_);stroke:#767677;stroke-width:0.6;stroke-linejoin:round;stroke-miterlimit:10;" d="
				M22.046,60.304c-5.271,0-9.544-5.71-9.544-12.756c0-7.044,4.273-12.755,9.544-12.755C27.318,34.793,27.318,60.304,22.046,60.304z
				"/>
			<g>
				
					<radialGradient id="SVGID_3_" cx="35.4409" cy="32.2822" r="44.3503" fx="24.8528" fy="16.4047" gradientUnits="userSpaceOnUse">
					<stop  offset="0.1037" style="stop-color:#FFC47F"/>
					<stop  offset="0.1467" style="stop-color:#FFB972"/>
					<stop  offset="0.3612" style="stop-color:#FF8435"/>
					<stop  offset="0.5187" style="stop-color:#FF630F"/>
					<stop  offset="0.6012" style="stop-color:#FF5600"/>
				</radialGradient>
				<path style="fill:url(#SVGID_3_);" d="M16.204,43.56c-0.04,0-0.089-0.021-0.118-0.049c-0.103-0.103-0.106-0.309-0.106-2.151
					c0-4.836,1.403-20.355,19.46-20.355c18.058,0,19.461,15.519,19.461,20.275c0,2.233,0,2.233-0.223,2.233
					c-0.166,0-0.198-0.115-0.444-1.01c-3.117-11.329-9.299-17.072-18.373-17.072l-0.418,0.004
					c-9.275,0.183-15.596,5.944-18.787,17.125C16.403,43.446,16.371,43.56,16.204,43.56L16.204,43.56z"/>
				<path style="fill:#767677;" d="M35.44,21.154c14.941,0,19.311,10.667,19.311,20.125c0,1.465,0,2.083-0.072,2.083
					c-0.388,0-2.876-18.082-18.817-18.082c-0.14,0-0.279,0.001-0.421,0.004C19.146,25.605,16.601,43.41,16.204,43.41
					c-0.075,0-0.073-0.632-0.073-2.131C16.13,31.821,20.5,21.154,35.44,21.154 M35.44,20.854c-6.897,0-12.111,2.231-15.496,6.633
					c-3.401,4.422-4.114,9.941-4.114,13.792v0.08c0,0.725,0,1.24,0.009,1.574c0.011,0.417,0.021,0.776,0.364,0.776
					c0.28,0,0.323-0.147,0.597-1.109c3.171-11.11,9.444-16.835,18.646-17.016c0.139-0.002,0.276-0.004,0.414-0.004
					c9,0,15.133,5.707,18.23,16.962c0.268,0.971,0.309,1.12,0.589,1.12c0.372,0,0.372,0,0.372-2.384
					c0-3.851-0.714-9.37-4.114-13.792C47.552,23.086,42.338,20.854,35.44,20.854L35.44,20.854z"/>
			</g>
			
				<radialGradient id="SVGID_4_" cx="50.6943" cy="43.9297" r="11.6594" gradientTransform="matrix(0.2354 1.3747 -0.9979 0.1468 81.3936 -33.1353)" gradientUnits="userSpaceOnUse">
				<stop  offset="0" style="stop-color:#FFC47F"/>
				<stop  offset="0.0605" style="stop-color:#FFB972"/>
				<stop  offset="0.362" style="stop-color:#FF8435"/>
				<stop  offset="0.5834" style="stop-color:#FF630F"/>
				<stop  offset="0.6994" style="stop-color:#FF5600"/>
			</radialGradient>
			<path style="fill:url(#SVGID_4_);stroke:#767677;stroke-width:0.5;stroke-linejoin:round;stroke-miterlimit:10;" d="
				M49.051,34.963c5.114,0.018,9.24,5.662,9.216,12.61c-0.024,6.946-4.189,12.565-9.307,12.55
				C43.844,60.104,43.932,34.947,49.051,34.963z"/>
		</g>
		<g style="opacity:0.76;">
			<path style="fill:#FFFFFF;" d="M42.754,23.378c-7.467-2.054-12.978-0.247-17.74,3.159c-7.048,5.042-8.702,13.367-6.999,8.384
				C20.723,27,29.292,18.776,42.754,23.378"/>
		</g>
		<path style="opacity:0.66;fill:#939292;" d="M16.438,43.41c0,0,0.948-3.042,2.396-4.506c1.442-1.457,5.271-2.484,5.271-2.484
			s-0.807-1-1.604-1.313s-2.015-0.178-2.015-0.178s-1.497,1.742-1.948,2.355C18.085,37.897,16.438,43.41,16.438,43.41z"/>
		<path style="opacity:0.44;fill:#939292;" d="M53.188,36.345c0,0-1.559-0.928-2.473-0.553c-0.915,0.375-1.617,3.27-1.617,3.27
			l-3.688,3.968c0,0,0.75-4.741,1.425-6.042c0.431-0.83,1.271-1.843,1.271-1.843s1.729-0.169,2.608,0.107
			S53.188,36.345,53.188,36.345"/>
		
			<radialGradient id="SVGID_5_" cx="50.1055" cy="53.1211" r="6.8299" fx="50.0563" fy="53.269" gradientTransform="matrix(1.2353 0 0 1.2716 -12.2256 -12.7278)" gradientUnits="userSpaceOnUse">
			<stop  offset="0.1037" style="stop-color:#FFC47F"/>
			<stop  offset="0.16" style="stop-color:#FFB972"/>
			<stop  offset="0.441" style="stop-color:#FF8435"/>
			<stop  offset="0.6474" style="stop-color:#FF630F"/>
			<stop  offset="0.7554" style="stop-color:#FF5600"/>
		</radialGradient>
		<ellipse style="fill:url(#SVGID_5_);" cx="48.619" cy="47.718" rx="2.214" ry="9.032"/>
		
			<ellipse transform="matrix(-0.9974 0.0718 -0.0718 -0.9974 42.2002 88.4005)" style="opacity:0.55;fill:#FFFFFF;" cx="19.511" cy="44.959" rx="1.686" ry="2.764"/>
		<path style="opacity:0.73;fill:#FFFFFF;" d="M60.066,67.28c-0.634,0.211-1.217,0.176-1.306-0.082
			c-0.083-0.256,0.36-0.636,0.994-0.847c0.634-0.212,1.22-0.179,1.305,0.08C61.146,66.688,60.701,67.067,60.066,67.28z"/>
		
			<ellipse transform="matrix(-0.9974 0.0716 -0.0716 -0.9974 42.1922 88.4027)" style="fill:#FFFFFF;" cx="19.511" cy="44.958" rx="0.968" ry="1.835"/>
		<path style="opacity:0.97;fill:#FFFFFF;" d="M62.1,15.539c-0.414-0.218-0.649-0.592-0.521-0.839
			c0.132-0.247,0.571-0.271,0.987-0.053c0.415,0.218,0.649,0.594,0.519,0.84C62.956,15.733,62.517,15.754,62.1,15.539z"/>
		<path style="opacity:0.29;" d="M46.729,42.41c-0.192,0.978-0.442,2.396-0.107,2.965c0.359,0.61,1.344,0.334,2.339,0.334
			c0.738,0,1.821,0,1.821,0c0.018-0.984-0.151-1.921-0.398-3.299c-0.357-1.992-1.055-3.609-1.797-3.609
			C47.912,38.801,47.126,40.395,46.729,42.41z"/>
		
			<ellipse transform="matrix(-0.9999 0.0143 -0.0143 -0.9999 107.0609 89.7402)" style="opacity:0.79;fill:#FFFFFF;" cx="53.21" cy="45.252" rx="0.581" ry="2.468"/>
		<path style="opacity:0.25;" d="M32.084,25.622c0,0,7.356-1.664,12.916,2.253c1.657,1.167,4.363,3.521,5.318,5.229
			s1.398,2.542,1.398,2.542l2.094,1.468c0,0-0.123-2.052-1.811-5.115c-1.431-2.597-3.75-4.688-7.812-6.096
			C38.14,23.808,32.084,25.622,32.084,25.622z"/>
		<path style="opacity:0.69;fill:#FFFFFF;" d="M47.451,56.191c-0.425-0.604-0.543-1.25-0.263-1.449
			c0.28-0.195,0.854,0.131,1.277,0.731c0.425,0.603,0.541,1.251,0.263,1.447C48.448,57.12,47.876,56.792,47.451,56.191z"/>
		<g style="opacity:0.82;">
			<path style="fill:#FFFFFF;" d="M51.213,58.221c1.412-4.408,1.577-5.637,1.662-10.672c0.101-5.987-2.309-11.623-1.602-10.389
				c1.628,2.84,2.052,6.55,2.108,10.558C53.416,50.12,53.175,55.375,51.213,58.221"/>
		</g>
		<g style="opacity:0.54;">
			<path style="fill:#FFFFFF;" d="M46.613,43.03c-0.446,3.429-0.303,1.929-0.359,4.991c-0.089,4.78,2.352,9.542,1.756,8.54
				c-1.376-2.307-1.805-4.795-1.985-7.997C45.966,47.515,46.008,46.017,46.613,43.03"/>
		</g>
		<path style="opacity:0.79;fill:#FFFFFF;" d="M26.308,24.375c1.214-0.62,2.363-0.8,2.572-0.392c0.206,0.403-0.609,1.236-1.82,1.858
			c-1.215,0.621-2.365,0.797-2.572,0.396C24.278,25.831,25.097,25,26.308,24.375z"/>
		<path style="opacity:0.44;fill:#939292;" d="M52.75,59.062c0,0,0.294,2.229,0.438,3.25s1.395,3.388,1.395,3.388
			s-0.708-2.074-0.25-2.658C54.922,62.291,55,61.959,55,61.959l-0.292-4.375L52.75,59.062z"/>
		<path style="opacity:0.19;" d="M56.055,22.694c0,0,0.82,0.868,1.533,0.868c0.924,0,1.163-0.625,1.163-0.625l1.885-3.725
			c0,0,0.095-0.143-0.036-0.459s-0.285-0.48-0.285-0.48s-0.205,0.336-0.518,0.461s-0.594,0.016-0.594,0.016L56.055,22.694z"/>
	</g>
</g>
</svg>
